# File created by Blade
# Date/Time:  Wed Jan 21 15:55:51 2015
# Frame Rate: 120.000 fps
#------------------------------------------------------
:FULLY-SPECIFIED
:DEGREES
640
root 23.735844 15.407530 -13.009360 -176.785895 12.671248 -204.915762
Spine 21.223339 -9.801578 55.532275
Head 8.626562 24.744319 23.185822
LeftShoulder -16.875876 -54.692756 60.633553
LeftArm 40.690264 -17.541505 13.712841
LeftForeArm 22.030329 0.000000 -3.369411
LeftHand -10.325426 0.000000 8.457553
LeftHandThumb1 -26.253704 0.000000 33.147579
RightShoulder -10.970913 -0.788498 -5.851315
RightArm 13.283781 52.505976 66.860766
RightForeArm -18.842904 -0.000000 73.727536
RightHand -16.904989 -0.000000 -68.695735
RightHandThumb1 -24.326973 -0.000000 -32.862282
LeftUpLeg 2.420577 31.203409 36.028883
LeftLeg 0.012346 -0.000000 -0.000000
LeftFoot -3.069322 16.303252 -26.017121
LeftToeBase 43.090002 -0.000000 -0.000000
RightUpLeg -106.164786 -18.638064 -9.926966
RightLeg 133.096034 -0.000000 -0.000000
RightFoot -66.730244 -36.017994 35.794024
RightToeBase 22.471507 -0.000000 -0.000000
641
root 23.736736 15.408816 -13.010701 -176.754943 12.674912 -204.923013
Spine 21.162553 -9.835880 55.571933
Head 8.768514 24.727173 23.374378
LeftShoulder -16.695283 -54.770616 60.506762
LeftArm 40.781656 -17.563181 13.760174
LeftForeArm 22.015967 -0.000000 -3.353494
LeftHand -10.331042 0.000000 8.546940
LeftHandThumb1 -26.253704 0.000000 33.147579
RightShoulder -11.008058 -0.555236 -5.831678
RightArm 13.109940 52.387348 66.654313
RightForeArm -18.997135 -0.000000 73.832849
RightHand -16.920671 0.000000 -68.605617
RightHandThumb1 -24.326973 -0.000000 -32.862282
LeftUpLeg 2.399154 31.222382 36.004277
LeftLeg 0.005277 -0.000000 -0.000000
LeftFoot -3.066123 16.302677 -25.996702
LeftToeBase 43.085306 -0.000000 -0.000000
RightUpLeg -106.179389 -18.595354 -9.944987
RightLeg 133.097223 -0.000000 -0.000000
RightFoot -66.723884 -36.021650 35.772182
RightToeBase 22.508474 -0.000000 -0.000000
642
root 23.736540 15.409930 -13.012431 -176.730314 12.676249 -204.928853
Spine 21.112702 -9.893736 55.586852
Head 8.883639 24.717017 23.578910
LeftShoulder -16.575093 -54.885782 60.478004
LeftArm 40.868957 -17.569614 13.745101
LeftForeArm 22.130345 0.000000 -3.339653
LeftHand -10.309673 -0.000000 8.741256
LeftHandThumb1 -26.253704 0.000000 33.147579
RightShoulder -10.992044 -0.364016 -5.773794
RightArm 12.927641 52.288333 66.392184
RightForeArm -19.057005 0.000000 73.944860
RightHand -16.933179 -0.000000 -68.514527
RightHandThumb1 -24.326973 -0.000000 -32.862282
LeftUpLeg 2.375096 31.245188 35.982269
LeftLeg 0.009486 -0.000000 -0.000000
LeftFoot -3.091691 16.296593 -25.990755
LeftToeBase 43.162454 -0.000000 -0.000000
RightUpLeg -106.189951 -18.574218 -9.971804
RightLeg 133.092854 -0.000000 -0.000000
RightFoot -66.711145 -36.087721 35.756351
RightToeBase 22.557665 -0.000000 -0.000000
643
root 23.739125 15.411518 -13.013128 -176.701248 12.681775 -204.902020
Spine 21.076563 -9.950953 55.628536
Head 8.989549 24.775307 23.785675
LeftShoulder -16.485671 -54.912006 60.433222
LeftArm 41.012414 -17.639291 13.697553
LeftForeArm 22.187756 -0.000000 -3.384459
LeftHand -10.229895 -0.000000 8.904635
LeftHandThumb1 -26.253704 0.000000 33.147579
RightShoulder -11.005922 -0.177749 -5.695327
RightArm 12.825266 52.161589 66.153459
RightForeArm -19.128918 -0.000000 74.018462
RightHand -16.956617 0.000000 -68.453719
RightHandThumb1 -24.326973 -0.000000 -32.862282
LeftUpLeg 2.353463 31.287617 36.000332
LeftLeg 0.024942 -0.000000 -0.000000
LeftFoot -3.092317 16.278175 -26.007050
LeftToeBase 43.101773 -0.000000 -0.000000
RightUpLeg -106.195420 -18.513029 -9.937732
RightLeg 133.091331 -0.000000 -0.000000
RightFoot -66.743585 -36.095288 35.816590
RightToeBase 22.289783 -0.000000 -0.000000
644
root 23.742257 15.412228 -13.011194 -176.644935 12.687826 -204.845515
Spine 21.031189 -9.995110 55.709419
Head 9.051888 24.862369 23.933090
LeftShoulder -16.408997 -55.003689 60.420568
LeftArm 41.068192 -17.520595 13.746991
LeftForeArm 22.116914 0.000000 -3.373445
LeftHand -10.564835 -0.000000 8.954185
LeftHandThumb1 -26.253704 0.000000 33.147579
RightShoulder -11.034627 0.028768 -5.656945
RightArm 12.693130 51.994874 65.919347
RightForeArm -19.196853 -0.000000 74.083480
RightHand -16.945958 -0.000000 -68.419628
RightHandThumb1 -24.326973 -0.000000 -32.862282
LeftUpLeg 2.302911 31.305349 36.039449
LeftLeg 0.052853 -0.000000 -0.000000
LeftFoot -3.121361 16.285294 -26.017259
LeftToeBase 43.126779 -0.000000 -0.000000
RightUpLeg -106.210233 -18.466615 -9.887708
RightLeg 133.073373 -0.000000 -0.000000
RightFoot -66.772677 -36.194247 35.845093
RightToeBase 22.429193 -0.000000 -0.000000
645
root 23.746679 15.412792 -13.009936 -176.586102 12.692503 -204.758784
Spine 20.983850 -10.033240 55.803624
Head 9.061095 24.862101 24.091821
LeftShoulder -16.331649 -55.003257 60.415339
LeftArm 41.138900 -17.537931 13.703351
LeftForeArm 22.114639 -0.000000 -3.383700
LeftHand -10.260580 -0.000000 9.091078
LeftHandThumb1 -26.253704 0.000000 33.147579
RightShoulder -11.078303 0.176371 -5.569334
RightArm 12.678875 51.840575 65.722430
RightForeArm -19.268118 -0.000000 74.124341
RightHand -17.001926 -0.000000 -68.368252
RightHandThumb1 -24.326973 -0.000000 -32.862282
LeftUpLeg 2.255390 31.332017 36.114004
LeftLeg 0.084837 -0.000000 -0.000000
LeftFoot -3.142019 16.271382 -26.000411
LeftToeBase 43.121899 -0.000000 -0.000000
RightUpLeg -106.223341 -18.413564 -9.791474
RightLeg 133.059677 -0.000000 -0.000000
RightFoot -66.784002 -36.168668 35.865287
RightToeBase 22.285227 -0.000000 -0.000000
646
root 23.750661 15.414438 -13.009507 -176.529914 12.700866 -204.682226
Spine 20.934936 -10.090708 55.885619
Head 9.102152 24.845260 24.205770
LeftShoulder -16.254322 -54.993494 60.392061
LeftArm 41.186996 -17.497452 13.706710
LeftForeArm 22.057332 0.000000 -3.389907
LeftHand -10.151315 -0.000000 9.195981
LeftHandThumb1 -26.253704 0.000000 33.147579
RightShoulder -11.077716 0.331405 -5.484206
RightArm 12.599604 51.686339 65.462637
RightForeArm -19.320864 -0.000000 74.179201
RightHand -17.048708 -0.000000 -68.329781
RightHandThumb1 -24.326973 -0.000000 -32.862282
LeftUpLeg 2.217620 31.351418 36.177000
LeftLeg 0.101909 -0.000000 -0.000000
LeftFoot -3.163893 16.287828 -25.981093
LeftToeBase 43.160800 -0.000000 -0.000000
RightUpLeg -106.235654 -18.361248 -9.730331
RightLeg 133.047037 -0.000000 -0.000000
RightFoot -66.790556 -36.210728 35.929597
RightToeBase 22.437279 -0.000000 -0.000000
647
root 23.754092 15.416243 -13.008646 -176.454668 12.724616 -204.611963
Spine 20.869707 -10.125208 55.967978
Head 9.200331 24.842331 24.299943
LeftShoulder -16.141072 -55.010840 60.321411
LeftArm 41.251058 -17.468849 13.683569
LeftForeArm 22.129021 -0.000000 -3.411998
LeftHand -10.243014 0.000000 9.208734
LeftHandThumb1 -26.253704 0.000000 33.147579
RightShoulder -11.064108 0.494888 -5.441252
RightArm 12.443292 51.519040 65.185458
RightForeArm -19.370522 -0.000000 74.220846
RightHand -17.035040 0.000000 -68.284379
RightHandThumb1 -24.326973 -0.000000 -32.862282
LeftUpLeg 2.174196 31.419344 36.228664
LeftLeg 0.121751 -0.000000 -0.000000
LeftFoot -3.162528 16.274273 -25.964601
LeftToeBase 43.137564 -0.000000 -0.000000
RightUpLeg -106.280498 -18.310435 -9.637624
RightLeg 133.032920 -0.000000 -0.000000
RightFoot -66.775620 -36.190719 35.902007
RightToeBase 22.265896 -0.000000 -0.000000
